<svg width="373" height="373" xmlns="http://www.w3.org/2000/svg" preserveAspectRatio="xMidYMid meet" version="1.0">
 <metadata>Created by potrace 1.16, written by Peter Selinger 2001-2019</metadata>

 <g>
  <title>Layer 1</title>
  <g stroke-width="0" stroke="null" id="svg_1" fill="#000000" transform="translate(0 373) scale(0.1 -0.1)">
   <path stroke-dasharray="5,5" stroke="#0f172a" fill="#0f172a" id="svg_2" d="m-42.99984,1869.0266l0,-1910.9734l1909.99986,0l1909.99986,0l0,1910.9734l0,1910.9734l-1909.99986,0l-1909.99986,0l0,-1910.9734zm763.99994,-1332.0458c52.23056,-162.91945 96.26809,-298.17333 96.26809,-300.22263c0,-2.0493 -30.72386,-2.0493 -68.61662,0l-68.61662,3.07395l-20.48257,69.67624l-19.45844,68.65159l-100.3646,0l-100.3646,0l-22.53083,-71.72554l-21.5067,-71.72554l-66.56836,0c-56.32707,0 -65.54423,2.0493 -60.42359,15.36976c3.07239,9.22186 48.13404,145.50039 99.34048,303.29658l93.1957,286.90217l81.93029,-3.07395l81.93029,-3.07395l96.26809,-297.14868zm412.72383,148.57434c18.43431,-5.12325 49.15817,-21.51766 68.61662,-35.86277l33.79624,-25.61627l-37.89276,-34.83812l-37.89276,-34.83812l-37.89276,19.46836c-46.08579,23.56696 -93.1957,24.59161 -114.7024,3.07395c-31.74799,-31.76417 -13.31367,-50.20788 60.42359,-60.45439c71.689,-10.24651 124.94369,-33.81347 148.49865,-64.55299c24.57909,-30.73952 27.65147,-102.46506 5.12064,-145.50039c-45.06166,-88.11995 -208.92224,-108.61297 -317.47987,-39.96137l-49.15817,30.73952l38.91689,39.96137l38.91689,39.96137l30.72386,-21.51766c40.96514,-29.71487 120.84718,-36.88742 143.37801,-13.32046c27.65147,27.66557 6.14477,54.30648 -52.23056,61.47904c-108.55763,15.36976 -159.76406,45.08463 -176.15012,105.53901c-19.45844,72.75019 26.62734,154.72224 98.31635,176.23991c40.96514,12.29581 114.7024,12.29581 156.69168,0zm318.504,-48.15858l0,-49.18323l17.41019,33.81347c18.43431,36.88742 59.39946,63.52834 100.3646,63.52834c24.57909,0 25.60322,-3.07395 25.60322,-55.33113l0,-54.30648l-53.25469,-5.12325c-83.97855,-8.1972 -90.12332,-22.54231 -90.12332,-193.65897l0,-142.42644l-61.44772,0l-61.44772,0l0,225.42314l0,225.42314l61.44772,0l61.44772,0l0,-48.15858zm348.20373,-177.26456l0,-225.42314l-61.44772,0l-61.44772,0l0,225.42314l0,225.42314l61.44772,0l61.44772,0l0,-225.42314z"/>
   <path stroke-dasharray="5,5" stroke="#0f172a" fill="#0f172a" id="svg_3" d="m507.98135,622.02681c-15.36193,-52.25718 -30.72386,-103.48971 -33.79624,-112.71157c-6.14477,-16.39441 0,-18.44371 60.42359,-18.44371c36.86863,0 67.59249,3.07395 67.59249,7.17255c0,15.36976 -54.27882,202.88082 -61.44772,211.07803c-3.07239,4.0986 -18.43431,-34.83812 -32.77212,-87.0953z"/>
  </g>
 </g>
</svg>