<?xml version="1.0" standalone="no"?>
<!DOCTYPE svg PUBLIC "-//W3C//DTD SVG 20010904//EN"
 "http://www.w3.org/TR/2001/REC-SVG-20010904/DTD/svg10.dtd">
<svg version="1.0" xmlns="http://www.w3.org/2000/svg"
 width="373.000000pt" height="373.000000pt" viewBox="0 0 373.000000 373.000000"
 preserveAspectRatio="xMidYMid meet">
<metadata>
Created by potrace 1.16, written by Peter Selinger 2001-2019
</metadata>
<g transform="translate(0.000000,373.000000) scale(0.100000,-0.100000)"
fill="#000000" stroke="none">
<path d="M0 1865 l0 -1865 1865 0 1865 0 0 1865 0 1865 -1865 0 -1865 0 0
-1865z m746 -1300 c51 -159 94 -291 94 -293 0 -2 -30 -2 -67 0 l-67 3 -20 68
-19 67 -98 0 -98 0 -22 -70 -21 -70 -65 0 c-55 0 -64 2 -59 15 3 9 47 142 97
296 l91 280 80 -3 80 -3 94 -290z m403 145 c18 -5 48 -21 67 -35 l33 -25 -37
-34 -37 -34 -37 19 c-45 23 -91 24 -112 3 -31 -31 -13 -49 59 -59 70 -10 122
-33 145 -63 24 -30 27 -100 5 -142 -44 -86 -204 -106 -310 -39 l-48 30 38 39
38 39 30 -21 c40 -29 118 -36 140 -13 27 27 6 53 -51 60 -106 15 -156 44 -172
103 -19 71 26 151 96 172 40 12 112 12 153 0z m311 -47 l0 -48 17 33 c18 36
58 62 98 62 24 0 25 -3 25 -54 l0 -53 -52 -5 c-82 -8 -88 -22 -88 -189 l0
-139 -60 0 -60 0 0 220 0 220 60 0 60 0 0 -47z m340 -173 l0 -220 -60 0 -60 0
0 220 0 220 60 0 60 0 0 -220z"/>
<path d="M538 648 c-15 -51 -30 -101 -33 -110 -6 -16 0 -18 59 -18 36 0 66 3
66 7 0 15 -53 198 -60 206 -3 4 -18 -34 -32 -85z"/>
</g>
</svg>
